<svg xmlns="http://www.w3.org/2000/svg" width="200" height="37" fill="#fff" viewBox="0 0 1830 337"><path d="M118.1 29l29.1 50h137.2l-16.7 28.8H164l29.1 50.1 22.7 39.2 12.4 21.2-22.6 39.1-16.9-29-38.5-66.3-2.4-4.2-29.2-50.1L101.9 79 72.8 29H15.4l29.1 50 16.3 28.8h-.1l29.1 50.1 69.9 120.4 17 29.1 16.8 29.6.2-.4 28.6-49.9 36.8-64.4 14.7-25.2-22.7-39.2h45.5l29.1-50.1L342.4 79l29.2-50H118.1z"/><path d="M407.95 78.81v120.02h66.6V221h-94.14V78.81h27.54zM593.11 221h-27.54c-.65-1.3-1.2-2.8-1.66-4.49-.46-1.69-.85-3.49-1.17-5.37-1.5 1.62-3.22 3.15-5.18 4.59-1.95 1.43-4.13 2.7-6.54 3.81-2.34 1.04-4.95 1.88-7.81 2.53-2.87.59-5.96.88-9.28.88-5.4 0-10.38-.78-14.94-2.34-4.49-1.56-8.37-3.74-11.62-6.54-3.26-2.8-5.8-6.12-7.62-9.96-1.82-3.91-2.73-8.14-2.73-12.7 0-11.13 4.13-19.73 12.4-25.78 8.33-6.12 20.73-9.18 37.21-9.18h15.13v-6.25c0-5.08-1.66-9.08-4.98-12.01-3.32-3-8.1-4.49-14.35-4.49-5.54 0-9.57 1.2-12.11 3.61-2.54 2.34-3.81 5.5-3.81 9.47h-27.15c0-4.49.98-8.76 2.93-12.79 2.02-4.04 4.91-7.59 8.69-10.65 3.84-3.06 8.5-5.46 13.97-7.22 5.53-1.83 11.84-2.74 18.94-2.74 6.38 0 12.31.78 17.77 2.35 5.54 1.56 10.32 3.87 14.36 6.93 4.04 3.06 7.19 6.93 9.47 11.62 2.28 4.62 3.42 9.99 3.42 16.11v45.32c0 5.66.36 10.35 1.07 14.06.72 3.71 1.76 6.9 3.13 9.57V221zm-53.42-19.04c2.74 0 5.27-.33 7.62-.98 2.34-.65 4.46-1.5 6.35-2.54 1.88-1.04 3.51-2.21 4.88-3.51 1.37-1.37 2.44-2.74 3.22-4.11v-18.16h-13.87c-4.23 0-7.84.42-10.84 1.27-2.99.78-5.43 1.92-7.32 3.42-1.89 1.43-3.29 3.19-4.2 5.27-.91 2.02-1.37 4.23-1.37 6.64 0 3.65 1.27 6.67 3.81 9.08 2.61 2.41 6.51 3.62 11.72 3.62zm155.76-88.58c4.1 0 7.88.3 11.33.88 3.52.52 6.35 1.11 8.5 1.76l-4.01 27.05c-3.58-.85-7.26-1.46-11.03-1.86-3.71-.45-7.26-.68-10.65-.68-7.61 0-13.73 1.47-18.36 4.4-4.55 2.93-7.97 7.12-10.25 12.59V221h-27.15V115.34h25.3l1.26 17.28c4.3-5.99 9.44-10.68 15.43-14.06 5.99-3.45 12.54-5.18 19.63-5.18zM807.76 192c0-1.63-.39-3.06-1.17-4.3-.72-1.24-2.05-2.38-4.01-3.42-1.89-1.11-4.43-2.11-7.62-3.03-3.19-.91-7.22-1.82-12.1-2.73-6.19-1.24-11.85-2.77-17-4.59-5.07-1.89-9.44-4.13-13.08-6.74-3.65-2.67-6.51-5.73-8.6-9.18-2.01-3.45-3.02-7.42-3.02-11.91 0-4.36 1.04-8.53 3.12-12.5 2.08-3.97 5.08-7.46 8.99-10.45 3.9-3 8.65-5.37 14.25-7.13 5.6-1.76 11.92-2.64 18.95-2.64 7.36 0 13.96.88 19.82 2.64 5.86 1.69 10.81 4.07 14.85 7.13 4.1 2.99 7.22 6.57 9.37 10.74 2.15 4.17 3.22 8.69 3.22 13.57h-27.14c0-4.1-1.66-7.51-4.98-10.25-3.32-2.8-8.37-4.2-15.14-4.2-6.32 0-11.1 1.14-14.36 3.42-3.19 2.28-4.78 5.08-4.78 8.4 0 1.56.32 3.03.97 4.39.66 1.3 1.8 2.51 3.42 3.62 1.7 1.04 3.97 2.01 6.84 2.93 2.86.84 6.51 1.59 10.94 2.24 6.38 1.04 12.3 2.38 17.77 4.01 5.47 1.62 10.19 3.74 14.16 6.34 3.97 2.54 7.06 5.67 9.28 9.38 2.28 3.64 3.42 8.01 3.42 13.08 0 4.69-1.14 9.02-3.42 12.99-2.22 3.91-5.41 7.29-9.57 10.16-4.1 2.86-9.09 5.11-14.94 6.74-5.86 1.56-12.41 2.34-19.63 2.34-7.95 0-14.98-1.04-21.1-3.12-6.05-2.09-11.13-4.79-15.23-8.11-4.1-3.39-7.23-7.19-9.38-11.43-2.08-4.29-3.12-8.59-3.12-12.89h25.88c.19 2.87.97 5.34 2.34 7.43 1.37 2.01 3.13 3.67 5.27 4.98 2.15 1.23 4.59 2.14 7.33 2.73 2.8.59 5.66.88 8.59.88 6.71 0 11.82-1.07 15.33-3.22 3.52-2.15 5.28-4.92 5.28-8.3zm245.9 29l-26.76-53.12h-20.8V221h-27.44V78.81h47.65c7.88 0 15.01.95 21.39 2.83 6.38 1.83 11.82 4.53 16.31 8.11 4.56 3.58 8.04 8.04 10.45 13.38 2.47 5.34 3.71 11.52 3.71 18.55 0 5.08-.62 9.67-1.86 13.77-1.17 4.04-2.89 7.69-5.17 10.94-2.22 3.19-4.92 5.99-8.11 8.4-3.12 2.41-6.64 4.49-10.55 6.25l30.57 58.69V221h-29.39zm-47.56-119.92v44.53h20.31c7.75 0 13.7-1.95 17.87-5.86 4.23-3.97 6.35-9.37 6.35-16.21 0-7.1-2.05-12.6-6.15-16.5-4.1-3.98-10.16-5.96-18.17-5.96h-20.21zm89.84 68.16v-2.05c0-7.68 1.11-14.78 3.32-21.29 2.22-6.57 5.44-12.27 9.67-17.09 4.3-4.82 9.5-8.59 15.62-11.33 6.19-2.73 13.25-4.1 21.2-4.1 7.94 0 15 1.37 21.19 4.1 6.18 2.74 11.39 6.51 15.62 11.33 4.3 4.82 7.55 10.52 9.77 17.09 2.21 6.51 3.32 13.61 3.32 21.29v2.05c0 7.75-1.11 14.91-3.32 21.49-2.22 6.51-5.44 12.17-9.67 16.99-4.23 4.82-9.44 8.59-15.62 11.33-6.19 2.67-13.22 4-21.1 4-7.94 0-15.04-1.33-21.29-4-6.18-2.74-11.42-6.51-15.72-11.33-4.23-4.82-7.45-10.48-9.67-16.99-2.21-6.58-3.32-13.74-3.32-21.49zm27.15-2.05v2.05c0 4.43.42 8.6 1.27 12.5.85 3.84 2.18 7.23 4 10.16 1.83 2.86 4.17 5.14 7.03 6.83 2.93 1.7 6.45 2.54 10.55 2.54 3.97 0 7.39-.84 10.26-2.54 2.86-1.69 5.17-3.97 6.93-6.83 1.82-2.93 3.16-6.32 4-10.16.85-3.9 1.27-8.07 1.27-12.5v-2.05c0-4.3-.42-8.36-1.27-12.21-.84-3.84-2.18-7.22-4-10.15-1.76-2.93-4.07-5.24-6.93-6.94-2.87-1.69-6.35-2.53-10.45-2.53-4.04 0-7.49.84-10.36 2.53-2.86 1.7-5.2 4.01-7.03 6.94-1.82 2.93-3.15 6.31-4 10.15-.85 3.85-1.27 7.91-1.27 12.21zm147.85 55.76c-8.14 0-15.53-1.33-22.17-4-6.64-2.67-12.33-6.28-17.09-10.84-4.75-4.62-8.43-10.03-11.03-16.21-2.54-6.25-3.81-12.92-3.81-20.02v-3.91c0-8.07 1.27-15.43 3.81-22.07 2.54-6.7 6.09-12.47 10.64-17.28 4.56-4.82 9.96-8.56 16.21-11.23s13.06-4.01 20.41-4.01c7.62 0 14.39 1.27 20.32 3.81 5.99 2.48 11.03 5.99 15.13 10.55 4.17 4.56 7.33 10.06 9.48 16.5 2.14 6.38 3.22 13.45 3.22 21.19v11.53h-71.68c.52 3.58 1.56 6.87 3.12 9.86 1.63 2.93 3.68 5.47 6.16 7.62 2.47 2.15 5.3 3.81 8.49 4.98 3.19 1.17 6.68 1.76 10.45 1.76 2.67 0 5.31-.26 7.91-.79 2.67-.52 5.21-1.26 7.62-2.24 2.41-1.04 4.65-2.31 6.74-3.81 2.08-1.5 3.9-3.26 5.47-5.27l13.57 14.64c-1.69 2.41-3.91 4.79-6.64 7.13-2.67 2.28-5.86 4.33-9.57 6.16-3.65 1.75-7.72 3.19-12.21 4.29-4.49 1.11-9.34 1.66-14.55 1.66zm-3.22-87.59c-3.06 0-5.86.55-8.4 1.66-2.54 1.04-4.78 2.57-6.74 4.59-1.89 2.01-3.48 4.42-4.78 7.22-1.31 2.8-2.28 5.93-2.93 9.38h44.53v-2.15c-.13-2.87-.69-5.57-1.66-8.11-.98-2.54-2.38-4.72-4.2-6.54-1.82-1.89-4.07-3.35-6.74-4.39-2.6-1.11-5.63-1.66-9.08-1.66zm94.63-45.9h27.15v25.88h39.45v20.02h-39.45v45.41c0 3.84.42 7.06 1.27 9.66.91 2.54 2.18 4.59 3.8 6.16 1.63 1.49 3.58 2.57 5.86 3.22 2.35.65 4.95.98 7.82.98 2.08 0 4.2-.1 6.34-.3 2.22-.19 4.3-.42 6.25-.68 2.02-.33 3.88-.65 5.57-.98 1.76-.32 3.26-.65 4.49-.97l2.64 18.65c-1.89 1.1-4.1 2.08-6.64 2.93-2.54.78-5.24 1.43-8.11 1.95-2.86.52-5.86.94-8.98 1.27-3.06.26-6.09.39-9.08.39-5.8 0-11.07-.75-15.82-2.25-4.69-1.56-8.73-3.93-12.11-7.12-3.32-3.26-5.9-7.36-7.72-12.31-1.82-5.01-2.73-11-2.73-17.97v-48.04h-24.12v-20.02h24.12V89.46zm120.02 0h27.15v25.88h39.45v20.02h-39.45v45.41c0 3.84.42 7.06 1.27 9.66.91 2.54 2.18 4.59 3.8 6.16 1.63 1.49 3.58 2.57 5.86 3.22 2.35.65 4.95.98 7.82.98 2.08 0 4.19-.1 6.34-.3 2.22-.19 4.3-.42 6.25-.68 2.02-.33 3.88-.65 5.57-.98 1.76-.32 3.25-.65 4.49-.97l2.64 18.65c-1.89 1.1-4.1 2.08-6.64 2.93-2.54.78-5.24 1.43-8.11 1.95-2.86.52-5.86.94-8.98 1.27-3.06.26-6.09.39-9.08.39-5.8 0-11.07-.75-15.82-2.25-4.69-1.56-8.73-3.93-12.11-7.12-3.32-3.26-5.9-7.36-7.72-12.31-1.82-5.01-2.73-11-2.73-17.97v-48.04h-24.12v-20.02h24.12V89.46zm104.59 48.04v-22.16h57.52v83.59h28.61V221h-86.13v-22.07h30.08V137.5h-30.08zm28.12-49.21c0-2.09.36-4.01 1.08-5.77.78-1.82 1.85-3.35 3.22-4.59 1.37-1.3 2.99-2.31 4.88-3.02 1.95-.72 4.1-1.08 6.45-1.08 4.81 0 8.62 1.37 11.42 4.1 2.87 2.67 4.3 6.12 4.3 10.36 0 4.23-1.43 7.71-4.3 10.44-2.8 2.67-6.61 4.01-11.42 4.01-2.35 0-4.5-.36-6.45-1.08-1.89-.71-3.51-1.69-4.88-2.93-1.37-1.3-2.44-2.83-3.22-4.59-.72-1.82-1.08-3.77-1.08-5.85zm81.94 81.15v-2.05c0-8.01.97-15.34 2.93-21.98 2.01-6.64 4.88-12.33 8.59-17.09 3.71-4.75 8.2-8.43 13.48-11.03 5.27-2.61 11.23-3.91 17.87-3.91 6.18 0 11.49 1.04 15.91 3.13 4.43 2.08 8.21 5.04 11.33 8.88l1.08-10.05h24.7v102.24c0 7.16-1.23 13.54-3.71 19.14-2.41 5.6-5.82 10.32-10.25 14.16-4.36 3.84-9.64 6.77-15.82 8.79-6.12 1.96-12.89 2.93-20.31 2.93-3.19 0-6.61-.32-10.26-.97-3.64-.66-7.26-1.67-10.84-3.03a53.03 53.03 0 01-10.15-5.18c-3.19-2.15-5.93-4.69-8.21-7.62l12.21-16.5c3.45 3.91 7.36 6.9 11.72 8.99 4.36 2.01 9.08 3.02 14.16 3.02 7.62 0 13.54-2.02 17.77-6.05 4.3-4.1 6.45-9.9 6.45-17.38v-6.06a33.986 33.986 0 01-11.23 8.2c-4.23 1.96-9.15 2.93-14.75 2.93-6.57 0-12.5-1.33-17.77-4-5.21-2.74-9.67-6.48-13.38-11.23-3.71-4.75-6.58-10.39-8.59-16.9-1.96-6.57-2.93-13.7-2.93-21.38zm27.24-2.05v2.05c0 4.42.42 8.56 1.27 12.4.91 3.78 2.28 7.1 4.1 9.96 1.83 2.8 4.14 5.01 6.94 6.64 2.8 1.63 6.12 2.44 9.96 2.44 4.75 0 8.66-.91 11.72-2.73 3.12-1.82 5.6-4.36 7.42-7.62V145.8c-1.82-3.32-4.3-5.85-7.42-7.61-3.06-1.83-6.9-2.74-11.53-2.74-3.84 0-7.16.85-9.96 2.54-2.8 1.63-5.14 3.91-7.03 6.84-1.82 2.86-3.19 6.25-4.1 10.15-.91 3.85-1.37 7.98-1.37 12.41z"/></svg>